<?xml version="1.0" encoding="utf-8"?>
<!DOCTYPE svg PUBLIC "-//W3C//DTD SVG 1.1//EN" "http://www.w3.org/Graphics/SVG/1.1/DTD/svg11.dtd">
<svg version="1.1" id="Layer_1" xmlns="http://www.w3.org/2000/svg" xmlns:xlink="http://www.w3.org/1999/xlink" x="0px" y="0px"
	 width="211.536px" height="50px" viewBox="0 0 211.536 50" enable-background="new 0 0 211.536 50" xml:space="preserve">
<g>
	<path fill="#144F8C" d="M65.118,33.059c-2.943,0-5.185-0.818-6.727-2.455s-2.312-3.962-2.312-6.976c0-1.497,0.235-2.834,0.706-4.01
		c0.47-1.175,1.114-2.168,1.933-2.978c0.818-0.81,1.793-1.424,2.926-1.842c1.131-0.419,2.36-0.627,3.683-0.627
		c0.766,0,1.463,0.056,2.09,0.169c0.626,0.114,1.175,0.244,1.646,0.392s0.862,0.3,1.176,0.457c0.313,0.157,0.54,0.279,0.679,0.366
		l-1.175,3.292c-0.558-0.296-1.206-0.549-1.946-0.758s-1.581-0.313-2.521-0.313c-0.627,0-1.241,0.104-1.841,0.313
		c-0.601,0.209-1.132,0.545-1.594,1.006c-0.461,0.462-0.832,1.058-1.11,1.79c-0.279,0.731-0.418,1.62-0.418,2.665
		c0,0.836,0.091,1.615,0.274,2.338s0.479,1.346,0.888,1.868c0.409,0.521,0.944,0.936,1.606,1.241
		c0.662,0.304,1.463,0.456,2.403,0.456c0.592,0,1.124-0.034,1.594-0.104c0.47-0.07,0.888-0.152,1.254-0.248s0.688-0.205,0.966-0.327
		c0.278-0.121,0.531-0.235,0.758-0.34l1.123,3.266c-0.574,0.349-1.384,0.662-2.429,0.94S66.494,33.059,65.118,33.059z"/>
	<path fill="#144F8C" d="M77.813,14.59c0.315,0.575,0.677,1.285,1.087,2.129c0.41,0.845,0.838,1.759,1.283,2.743
		c0.445,0.984,0.886,1.99,1.323,3.018s0.847,1.995,1.231,2.899c0.384-0.905,0.794-1.872,1.231-2.899
		c0.436-1.028,0.877-2.033,1.322-3.018c0.445-0.983,0.873-1.898,1.284-2.743c0.41-0.845,0.772-1.555,1.086-2.129h3.709
		c0.174,1.202,0.335,2.547,0.483,4.036c0.148,1.489,0.278,3.04,0.392,4.65c0.113,1.611,0.218,3.227,0.314,4.846
		c0.095,1.62,0.178,3.144,0.248,4.572h-3.971c-0.052-1.759-0.122-3.675-0.209-5.748c-0.087-2.072-0.218-4.162-0.392-6.269
		c-0.315,0.731-0.664,1.541-1.048,2.429c-0.384,0.889-0.765,1.777-1.14,2.665c-0.375,0.888-0.738,1.738-1.087,2.547
		c-0.35,0.81-0.646,1.502-0.891,2.077h-2.848c-0.245-0.575-0.542-1.268-0.891-2.077s-0.712-1.659-1.087-2.547
		c-0.375-0.888-0.755-1.776-1.14-2.665c-0.384-0.888-0.734-1.697-1.048-2.429c-0.175,2.107-0.305,4.197-0.392,6.269
		c-0.087,2.073-0.157,3.989-0.209,5.748h-3.971c0.07-1.429,0.152-2.952,0.249-4.572c0.095-1.619,0.2-3.234,0.313-4.846
		c0.113-1.611,0.243-3.161,0.392-4.65c0.148-1.488,0.309-2.834,0.483-4.036H77.813z"/>
	<path fill="#FFCB0A" d="M103.517,33.073c-1.271,0-2.429-0.209-3.474-0.627c-1.045-0.419-1.942-1.027-2.691-1.829
		c-0.749-0.801-1.329-1.79-1.737-2.966c-0.41-1.175-0.614-2.521-0.614-4.035c0-1.515,0.23-2.861,0.692-4.036
		c0.461-1.176,1.084-2.164,1.868-2.965c0.784-0.8,1.698-1.411,2.743-1.829s2.159-0.627,3.344-0.627c0.748,0,1.423,0.052,2.024,0.157
		c0.601,0.104,1.124,0.227,1.568,0.365c0.444,0.14,0.806,0.279,1.085,0.418c0.277,0.14,0.469,0.244,0.574,0.313l-0.732,2.09
		c-0.156-0.104-0.383-0.218-0.679-0.34s-0.632-0.244-1.006-0.366s-0.784-0.222-1.228-0.301c-0.443-0.078-0.892-0.117-1.345-0.117
		c-0.958,0-1.82,0.166-2.586,0.496c-0.767,0.331-1.419,0.81-1.959,1.437s-0.953,1.389-1.24,2.286
		c-0.288,0.896-0.432,1.903-0.432,3.017c0,1.08,0.126,2.063,0.379,2.951c0.252,0.889,0.631,1.65,1.137,2.286
		c0.505,0.636,1.136,1.128,1.894,1.477s1.641,0.522,2.651,0.522c1.167,0,2.133-0.122,2.9-0.366c0.767-0.243,1.341-0.461,1.724-0.653
		l0.653,2.09c-0.122,0.088-0.339,0.196-0.653,0.327c-0.313,0.131-0.705,0.257-1.175,0.379c-0.47,0.121-1.019,0.226-1.646,0.313
		C104.928,33.029,104.249,33.073,103.517,33.073z"/>
	<path fill="#FFCB0A" d="M122.587,25.888c0,1.08-0.156,2.056-0.469,2.926c-0.314,0.871-0.754,1.62-1.32,2.247
		s-1.24,1.109-2.023,1.449c-0.784,0.34-1.639,0.51-2.561,0.51c-0.924,0-1.777-0.17-2.561-0.51s-1.459-0.822-2.025-1.449
		c-0.565-0.627-1.005-1.376-1.318-2.247c-0.313-0.87-0.471-1.846-0.471-2.926c0-1.062,0.157-2.033,0.471-2.913
		s0.753-1.633,1.318-2.259c0.566-0.628,1.242-1.11,2.025-1.45s1.637-0.509,2.561-0.509c0.922,0,1.776,0.169,2.561,0.509
		c0.783,0.34,1.457,0.822,2.023,1.45c0.566,0.626,1.006,1.38,1.32,2.259C122.431,23.855,122.587,24.826,122.587,25.888z
		 M120.054,25.888c0-1.532-0.344-2.747-1.031-3.644c-0.689-0.897-1.625-1.345-2.809-1.345c-1.186,0-2.121,0.448-2.809,1.345
		c-0.688,0.897-1.032,2.112-1.032,3.644s0.344,2.747,1.032,3.645c0.688,0.896,1.623,1.345,2.809,1.345
		c1.184,0,2.119-0.448,2.809-1.345C119.71,28.635,120.054,27.42,120.054,25.888z"/>
	<path fill="#FFCB0A" d="M125.226,19.488c0.558-0.139,1.297-0.287,2.221-0.444c0.923-0.157,1.986-0.235,3.188-0.235
		c1.079,0,1.977,0.152,2.69,0.457s1.284,0.731,1.711,1.28c0.427,0.549,0.728,1.207,0.901,1.972c0.174,0.767,0.262,1.611,0.262,2.534
		v7.628h-2.43v-7.105c0-0.836-0.057-1.549-0.17-2.142c-0.114-0.592-0.301-1.071-0.563-1.437c-0.26-0.366-0.609-0.631-1.044-0.797
		c-0.437-0.165-0.976-0.248-1.62-0.248c-0.262,0-0.531,0.009-0.811,0.026c-0.277,0.018-0.544,0.039-0.797,0.065
		c-0.252,0.026-0.479,0.057-0.678,0.091c-0.201,0.036-0.345,0.061-0.432,0.079V32.68h-2.43V19.488z"/>
	<path fill="#FFCB0A" d="M142.597,30.93c0.994,0,1.729-0.131,2.209-0.393c0.479-0.261,0.717-0.679,0.717-1.254
		c0-0.592-0.234-1.062-0.704-1.41c-0.47-0.348-1.246-0.74-2.325-1.176c-0.523-0.209-1.023-0.422-1.502-0.64
		s-0.893-0.474-1.241-0.771c-0.349-0.296-0.627-0.653-0.836-1.071c-0.21-0.417-0.313-0.932-0.313-1.541
		c0-1.202,0.443-2.155,1.332-2.861s2.099-1.058,3.631-1.058c0.383,0,0.767,0.022,1.15,0.065c0.383,0.043,0.739,0.095,1.07,0.157
		c0.33,0.061,0.623,0.126,0.875,0.195c0.254,0.07,0.449,0.131,0.588,0.183l-0.443,2.09c-0.262-0.139-0.671-0.283-1.229-0.431
		c-0.557-0.147-1.227-0.222-2.012-0.222c-0.679,0-1.271,0.135-1.775,0.405c-0.506,0.271-0.758,0.692-0.758,1.268
		c0,0.296,0.057,0.558,0.17,0.783c0.113,0.227,0.287,0.432,0.521,0.614c0.236,0.183,0.527,0.353,0.875,0.51
		c0.35,0.156,0.768,0.322,1.255,0.496c0.644,0.245,1.218,0.484,1.724,0.719s0.937,0.509,1.293,0.823
		c0.357,0.313,0.631,0.692,0.823,1.137c0.192,0.443,0.288,0.988,0.288,1.633c0,1.254-0.467,2.203-1.398,2.847
		c-0.932,0.645-2.26,0.968-3.984,0.968c-1.201,0-2.141-0.102-2.82-0.301c-0.68-0.2-1.141-0.354-1.385-0.458l0.444-2.089
		c0.278,0.104,0.722,0.261,1.332,0.47C140.777,30.826,141.587,30.93,142.597,30.93z"/>
	<path fill="#FFCB0A" d="M161.118,32.289c-0.557,0.14-1.292,0.287-2.207,0.444c-0.914,0.156-1.972,0.234-3.174,0.234
		c-1.045,0-1.924-0.152-2.638-0.457c-0.715-0.304-1.29-0.735-1.725-1.293c-0.437-0.557-0.749-1.215-0.94-1.973
		s-0.287-1.597-0.287-2.521v-7.628h2.43v7.105c0,1.654,0.261,2.839,0.783,3.553c0.521,0.714,1.401,1.071,2.639,1.071
		c0.262,0,0.531-0.009,0.809-0.026c0.279-0.017,0.541-0.039,0.785-0.065c0.243-0.026,0.465-0.052,0.666-0.078
		c0.199-0.026,0.343-0.056,0.43-0.091V19.096h2.43V32.289z"/>
	<path fill="#FFCB0A" d="M168.59,32.942c-1.498-0.035-2.56-0.357-3.187-0.967s-0.94-1.559-0.94-2.848V12.827l2.429-0.418v16.327
		c0,0.401,0.035,0.731,0.105,0.993c0.068,0.261,0.182,0.47,0.339,0.626c0.157,0.157,0.366,0.274,0.627,0.353
		c0.261,0.079,0.583,0.145,0.967,0.196L168.59,32.942z"/>
	<path fill="#FFCB0A" d="M173.136,19.096h5.146v2.038h-5.146v6.27c0,0.679,0.053,1.24,0.156,1.685
		c0.105,0.444,0.262,0.793,0.471,1.045s0.47,0.432,0.783,0.535c0.313,0.104,0.68,0.157,1.098,0.157c0.731,0,1.319-0.083,1.763-0.248
		c0.444-0.165,0.753-0.283,0.929-0.353l0.469,2.011c-0.244,0.122-0.67,0.274-1.279,0.458c-0.609,0.182-1.307,0.273-2.09,0.273
		c-0.924,0-1.686-0.117-2.286-0.353c-0.601-0.234-1.084-0.588-1.45-1.058c-0.365-0.47-0.623-1.049-0.77-1.737
		c-0.148-0.688-0.223-1.484-0.223-2.391V15.308l2.43-0.417V19.096z"/>
	<path fill="#FFCB0A" d="M181.782,16.641c-0.436,0-0.807-0.144-1.11-0.431c-0.306-0.287-0.458-0.675-0.458-1.162
		c0-0.488,0.152-0.875,0.458-1.163c0.304-0.287,0.675-0.431,1.11-0.431s0.805,0.144,1.109,0.431
		c0.305,0.288,0.458,0.675,0.458,1.163c0,0.487-0.153,0.875-0.458,1.162S182.218,16.641,181.782,16.641z M183.009,32.68h-2.429
		V19.096h2.429V32.68z"/>
	<path fill="#FFCB0A" d="M186.405,19.488c0.558-0.139,1.297-0.287,2.221-0.444c0.923-0.157,1.985-0.235,3.188-0.235
		c1.08,0,1.977,0.152,2.69,0.457s1.284,0.731,1.71,1.28c0.428,0.549,0.729,1.207,0.902,1.972c0.174,0.767,0.262,1.611,0.262,2.534
		v7.628h-2.43v-7.105c0-0.836-0.057-1.549-0.17-2.142c-0.113-0.592-0.301-1.071-0.563-1.437c-0.26-0.366-0.609-0.631-1.045-0.797
		c-0.436-0.165-0.975-0.248-1.619-0.248c-0.262,0-0.531,0.009-0.811,0.026c-0.277,0.018-0.543,0.039-0.797,0.065
		c-0.252,0.026-0.479,0.057-0.678,0.091c-0.201,0.036-0.345,0.061-0.432,0.079V32.68h-2.43V19.488z"/>
	<path fill="#FFCB0A" d="M209.132,31.322c-0.209,0.14-0.613,0.318-1.214,0.536c-0.601,0.217-1.302,0.326-2.103,0.326
		c-0.819,0-1.59-0.131-2.313-0.393c-0.723-0.261-1.354-0.666-1.895-1.214c-0.539-0.549-0.967-1.231-1.279-2.051
		c-0.313-0.818-0.471-1.794-0.471-2.926c0-0.992,0.148-1.903,0.445-2.73c0.295-0.827,0.727-1.542,1.293-2.142
		c0.564-0.601,1.258-1.071,2.076-1.411c0.818-0.339,1.741-0.509,2.77-0.509c1.131,0,2.119,0.083,2.965,0.248
		c0.844,0.166,1.554,0.318,2.129,0.457v12.121c0,2.09-0.54,3.605-1.619,4.546c-1.08,0.94-2.717,1.41-4.912,1.41
		c-0.854,0-1.658-0.069-2.416-0.208c-0.758-0.141-1.416-0.306-1.973-0.497l0.444-2.116c0.487,0.191,1.084,0.361,1.79,0.51
		c0.705,0.147,1.439,0.222,2.207,0.222c1.445,0,2.485-0.287,3.121-0.862c0.637-0.574,0.953-1.488,0.953-2.742V31.322z
		 M209.106,21.238c-0.244-0.069-0.57-0.135-0.98-0.196c-0.408-0.061-0.962-0.092-1.658-0.092c-1.306,0-2.313,0.427-3.017,1.28
		c-0.706,0.854-1.058,1.985-1.058,3.396c0,0.784,0.1,1.455,0.3,2.011c0.2,0.558,0.47,1.02,0.81,1.385
		c0.34,0.366,0.73,0.636,1.176,0.81c0.443,0.175,0.9,0.262,1.371,0.262c0.645,0,1.236-0.092,1.776-0.274s0.967-0.396,1.28-0.64
		V21.238z"/>
	<g>
		<path fill="#FFCB0A" d="M21.884,48.943c-0.326,0.85-1.278,1.273-2.127,0.947s-1.273-1.278-0.947-2.127l8.081-21.054
			c0.085-0.223,0.325-0.344,0.555-0.282c0.249,0.066,0.395,0.321,0.329,0.569l-5.837,21.782
			C21.922,48.834,21.905,48.889,21.884,48.943z"/>
		<path fill="#FFCB0A" d="M31.636,48.479c-0.045,0.865-0.783,1.529-1.648,1.484c-0.865-0.046-1.53-0.783-1.484-1.648l1.103-21.028
			c0.012-0.237,0.202-0.427,0.439-0.439c0.256-0.015,0.475,0.184,0.488,0.439l1.102,21.028
			C31.639,48.37,31.638,48.424,31.636,48.479z"/>
		<path fill="#FFCB0A" d="M40.047,44.446c0.208,0.773-0.252,1.57-1.026,1.777c-0.775,0.207-1.572-0.252-1.779-1.026l-4.876-18.2
			c-0.062-0.229,0.06-0.469,0.282-0.555c0.24-0.092,0.508,0.028,0.601,0.268L40,44.3C40.019,44.347,40.034,44.396,40.047,44.446z"/>
		<path fill="#FFCB0A" d="M9.964,43.256c-0.037,0.047-0.071,0.094-0.103,0.143c-0.503,0.775-0.283,1.813,0.493,2.316
			c0.775,0.504,1.813,0.283,2.316-0.492l12.569-19.355c0.135-0.207,0.084-0.484-0.116-0.629c-0.201-0.146-0.48-0.107-0.634,0.084
			L9.964,43.256z"/>
		<path fill="#FFCB0A" d="M3.579,35.643c-0.707,0.573-0.816,1.609-0.244,2.316s1.609,0.816,2.315,0.243l17.526-14.191
			c0.185-0.15,0.226-0.415,0.097-0.615c-0.14-0.215-0.428-0.276-0.644-0.136L3.719,35.542C3.67,35.574,3.624,35.608,3.579,35.643z"
			/>
		<path fill="#FFCB0A" d="M1.007,26.226c-0.809,0.31-1.213,1.218-0.902,2.026c0.31,0.809,1.217,1.213,2.026,0.902l19.659-7.547
			c0.222-0.085,0.344-0.325,0.282-0.554c-0.066-0.248-0.322-0.395-0.569-0.329l-20.34,5.45C1.109,26.189,1.058,26.207,1.007,26.226z
			"/>
		<path fill="#FFCB0A" d="M2.244,16.98c-0.801,0.042-1.416,0.725-1.374,1.525c0.042,0.801,0.725,1.417,1.525,1.374l18.816-0.986
			c0.237-0.013,0.428-0.202,0.44-0.44c0.013-0.256-0.184-0.475-0.44-0.488L2.397,16.979C2.346,16.976,2.295,16.977,2.244,16.98z"/>
		<path fill="#144F8C" d="M49.055,30.767c-0.032-0.026-0.065-0.051-0.1-0.072L37.508,23.26c-0.215-0.14-0.503-0.079-0.643,0.137
			c-0.13,0.2-0.087,0.464,0.097,0.615l10.608,8.59c0.506,0.41,1.25,0.333,1.66-0.174S49.562,31.177,49.055,30.767z"/>
		<path fill="#144F8C" d="M49.686,23.692c-0.034-0.014-0.07-0.024-0.105-0.034l-10.944-2.933c-0.249-0.066-0.503,0.081-0.569,0.329
			c-0.062,0.229,0.06,0.469,0.282,0.554l10.577,4.061c0.546,0.21,1.159-0.063,1.368-0.609
			C50.504,24.514,50.232,23.902,49.686,23.692z"/>
		<path fill="#144F8C" d="M38.486,18.454c0.013,0.238,0.203,0.428,0.44,0.44l9.459,0.496c0.53,0.027,0.982-0.38,1.01-0.91
			c0.028-0.53-0.379-0.982-0.909-1.011c-0.033-0.002-0.067-0.002-0.101,0l-9.459,0.496C38.67,17.979,38.473,18.197,38.486,18.454z"
			/>
		<path fill="#144F8C" d="M38.083,15.852c0.084,0.222,0.324,0.344,0.554,0.282l7.871-2.108c0.476-0.128,0.758-0.617,0.63-1.092
			c-0.128-0.476-0.617-0.758-1.093-0.631c-0.029,0.008-0.059,0.018-0.088,0.029l-7.607,2.92 c-0.238,0.091-0.358,0.36-0.265,0.6z"/>
		<path fill="#144F8C" d="M42.218,9.651c-0.224-0.345-0.686-0.443-1.032-0.219c-0.021,0.015-0.042,0.03-0.063,0.046l-7.608,6.161
			c-0.1,0.08-0.115,0.228-0.034,0.327c0.075,0.092,0.208,0.113,0.308,0.048l8.209-5.332C42.344,10.458,42.442,9.997,42.218,9.651z"
			/>
		<path fill="#144F8C" d="M23.177,12.848l-10.608-8.59c-0.032-0.026-0.065-0.05-0.1-0.072c-0.547-0.355-1.278-0.2-1.633,0.347
			c-0.355,0.546-0.199,1.277,0.347,1.632l11.448,7.435c0.2,0.129,0.465,0.088,0.615-0.097
			C23.407,13.302,23.376,13.009,23.177,12.848z"/>
		<path fill="#144F8C" d="M19.068,1.489c-0.02-0.031-0.042-0.061-0.065-0.09c-0.368-0.454-1.035-0.524-1.489-0.156
			c-0.455,0.368-0.525,1.035-0.156,1.49l7.13,8.805c0.149,0.184,0.415,0.227,0.614,0.097c0.215-0.14,0.276-0.427,0.137-0.643
			L19.068,1.489z"/>
		<path fill="#144F8C" d="M25.323,0.713c-0.009-0.032-0.02-0.064-0.031-0.096c-0.191-0.495-0.747-0.743-1.242-0.553
			s-0.743,0.747-0.554,1.242l3.395,8.844c0.085,0.222,0.325,0.343,0.555,0.282c0.249-0.066,0.395-0.321,0.329-0.57L25.323,0.713z"/>
		<path fill="#144F8C" d="M30.023,0.498c-0.492,0.026-0.87,0.446-0.844,0.938l0.427,8.137c0.012,0.237,0.202,0.427,0.439,0.439
			c0.256,0.014,0.475-0.183,0.488-0.439l0.427-8.137c0.001-0.031,0.001-0.063,0-0.094C30.934,0.85,30.515,0.473,30.023,0.498z"/>
		<path fill="#144F8C" d="M35.191,5.076c0.106-0.398-0.129-0.807-0.528-0.914c-0.397-0.106-0.806,0.13-0.913,0.528l-2.534,9.455
			c-0.031,0.115,0.03,0.234,0.141,0.277c0.12,0.046,0.255-0.014,0.301-0.134l3.508-9.14C35.176,5.125,35.184,5.101,35.191,5.076z"/>
	</g>
</g>
</svg>